<svg xmlns="http://www.w3.org/2000/svg" xmlns:xlink="http://www.w3.org/1999/xlink" version="1.1" viewBox="0 0 622 481"><title>projection</title><desc>Created with Sketch.</desc><g id="Page-1" fill="none" fill-rule="evenodd" stroke="none" stroke-width="1"><rect id="Rectangle-2" width="543" height="421" x="44" y="26" fill="#1E467E"/><g id="projection" transform="translate(87.000000, 50.000000)"><rect id="Rectangle" width="48" height="439" x="202" y="-147" stroke="#FFD5C7" stroke-width="5" rx="24" transform="translate(226.000000, 72.500000) rotate(-270.000000) translate(-226.000000, -72.500000)"/><text id="Features" fill="#000" font-family="Arvo-Bold, Arvo" font-size="24" font-weight="bold"><tspan x="167.656" y="23">Features</tspan></text><text id="Output" fill="#000" font-family="Arvo-Bold, Arvo" font-size="24" font-weight="bold"><tspan x="183.094" y="374">Output</tspan></text><text id="0-(dark)" fill="#000" font-family="Arvo" font-size="18" font-weight="normal"><tspan x="42.311" y="331">0</tspan> <tspan x=".598" y="352">(dark)</tspan></text><text id="1-(bright)" fill="#000" font-family="Arvo" font-size="18" font-weight="normal"><tspan x="407" y="332">1</tspan> <tspan x="407" y="353">(bright)</tspan></text><text id="D" fill="#000" class="R" font-family="Arvo" font-size="18" font-weight="normal"><tspan x="210" y="212">D.R.</tspan></text><g fill="#000" class="attribute-labels" font-family="Lora-Italic, Lora" font-style="italic" font-weight="normal" transform="translate(34.000000, 56.000000)"><g id="Group"><text id="f" font-size="24"><tspan x="0" y="23">f</tspan></text><text id="1" font-size="12"><tspan x="15" y="29">1</tspan></text></g><g id="Group-Copy" transform="translate(84.000000, 0.000000)"><text id="f" font-size="24"><tspan x="0" y="23">f</tspan></text><text id="2" font-size="12"><tspan x="15" y="29">2</tspan></text></g><g id="Group-Copy-2" transform="translate(182.000000, 0.000000)"><text id="f" font-size="24"><tspan x="0" y="23">f</tspan></text><text id="3" font-size="12"><tspan x="15" y="29">3</tspan></text></g><g id="Group-Copy-3" transform="translate(276.000000, 0.000000)"><text id="f" font-size="24"><tspan x="0" y="23">f</tspan></text><text id="…" font-size="12"><tspan x="15" y="29">…</tspan></text></g><g id="Group-Copy-4" transform="translate(368.000000, 0.000000)"><text id="f" font-size="24"><tspan x="0" y="23">f</tspan></text><text id="n" font-size="12"><tspan x="15" y="29">n</tspan></text></g></g><path stroke="#FFF" stroke-linecap="square" stroke-width="3" d="M115.5,323.5 L225.5,220.5" class="output-line"/><rect id="Rectangle-3" width="101" height="30" x="175.5" y="190.5" stroke="#FFD5C7" stroke-width="5"/><path id="Line-2" stroke="#FFF" stroke-linecap="square" stroke-width="3" d="M55.5,107.5 L223.5,188.5"/><path id="Line-2" stroke="#FFF" stroke-linecap="square" stroke-width="3" d="M142.5,112.5 L224.5,184.5"/><path id="Line-2" stroke="#FFF" stroke-linecap="square" stroke-width="3" d="M226.5,114.5 L226.5,185.5"/><path id="Line-2" stroke="#FFF" stroke-linecap="square" stroke-width="3" d="M320.5,114.5 L225.5,186.5"/><path id="Line-2" stroke="#FFF" stroke-linecap="square" stroke-width="3" d="M404.5,111.5 L231.5,188.5"/><path id="Path-2" fill="#FFD5C7" d="M208,190.482127 C214.267433,183.799368 220.438678,180.457989 226.513734,180.457989 C232.58879,180.457989 238.760035,183.799368 245.027468,190.482127 L208,190.482127 Z"/><path stroke="#FFD5C7" stroke-linecap="square" stroke-width="4" d="M67.5,325.5 L392.353813,325.5" class="bottom-line"/><circle cx="112.5" cy="326.5" r="7.5" fill="#FFF" class="output-circle"/></g></g></svg>